<svg width="100" height="125" fill="none" xmlns="http://www.w3.org/2000/svg"><path d="M50 5.5C25.5 5.5 5.5 25.5 5.5 50s20 44.5 44.5 44.5 44.5-20 44.5-44.5S74.5 5.5 50 5.5zm0 86C27.1 91.5 8.5 72.9 8.5 50S27.1 8.5 50 8.5 91.5 27.1 91.5 50 72.9 91.5 50 91.5z" fill="#FD772E"/><path d="M55.4 50c0-2.5-1.7-4.5-3.9-5.2V23.4h-3v21.4c-2.3.7-3.9 2.7-3.9 5.2 0 3 2.4 5.4 5.4 5.4.4 0 .9-.1 1.3-.2L63 66.9l2.1-2.1-11.2-11.1c.9-1 1.5-2.3 1.5-3.7zm-7.8 0c0-1.3 1.1-2.4 2.4-2.4 1.3 0 2.4 1.1 2.4 2.4 0 1.3-1.1 2.4-2.4 2.4-1.3 0-2.4-1.1-2.4-2.4z" fill="#FD772E"/><path d="M50 13.3c-20.2 0-36.7 16.5-36.7 36.7 0 20.2 16.5 36.7 36.7 36.7 20.2 0 36.7-16.5 36.7-36.7 0-20.2-16.5-36.7-36.7-36.7zm0 70.4c-18.6 0-33.7-15.1-33.7-33.7S31.4 16.3 50 16.3 83.7 31.4 83.7 50 68.6 83.7 50 83.7z" fill="#FD772E"/></svg>