<svg width="100" height="125" fill="none" xmlns="http://www.w3.org/2000/svg"><path d="M97.6 42.1c-.5-.2-1.2-.1-1.6.2l-9.5 8.4v-6.1c0-2.8-2.3-5.1-5.1-5.1H68.5V21.4L50.8 4.5H1.5v91h67v-21h12.9c2.8 0 5.1-2.3 5.1-5.1v-6.1l9.5 8.4c.3.2.6.4 1 .4.2 0 .4 0 .6-.1.5-.2.9-.8.9-1.4V43.5c0-.6-.3-1.2-.9-1.4zM51.5 9.4l10.6 10.1H51.5V9.4zm14 83.1h-61v-85h44v15h16.8l.2.2v16.8H41.6c-2.8 0-5.1 2.3-5.1 5.1v24.9c0 2.8 2.3 5.1 5.1 5.1h23.9v17.9zm18-23.1c0 1.1-.9 2.1-2.1 2.1H41.6c-1.1 0-2.1-.9-2.1-2.1V44.6c0-1.1.9-2.1 2.1-2.1h39.9c1.1 0 2.1.9 2.1 2.1v24.8h-.1zm12-2.2l-9-7.9v-4.6l9-7.9v20.4z" fill="#FD772E"/><path d="M49.5 64.5h-6v3h6v-3zm9 0h-6v3h6v-3z" fill="#FD772E"/></svg>