<svg width="22" height="22" fill="none" xmlns="http://www.w3.org/2000/svg"><path d="M11 4.621c1.953 0 3.27.844 4.021 1.549l2.936-2.866C16.154 1.628 13.808.6 11 .6 6.933.6 3.42 2.934 1.71 6.332l3.362 2.611C5.916 6.436 8.25 4.621 11 4.621z" fill="#EA4335"/><path d="M20.984 11.231c0-.855-.07-1.479-.22-2.126H11v3.86h5.732c-.116.959-.74 2.403-2.127 3.374l3.282 2.542c1.965-1.814 3.097-4.484 3.097-7.65z" fill="#4285F4"/><path d="M5.084 13.057A6.403 6.403 0 014.737 11c0-.716.127-1.41.335-2.057L1.71 6.332A10.409 10.409 0 00.6 11c0 1.676.405 3.259 1.11 4.668l3.374-2.611z" fill="#FBBC05"/><path d="M11 21.4c2.808 0 5.166-.924 6.887-2.52l-3.281-2.541c-.879.612-2.057 1.04-3.606 1.04-2.75 0-5.084-1.815-5.916-4.322L1.72 15.668C3.43 19.066 6.932 21.4 11 21.4z" fill="#34A853"/></svg>