<svg width="26" height="25" fill="none" xmlns="http://www.w3.org/2000/svg"><path fill-rule="evenodd" clip-rule="evenodd" d="M6.319 2.823c0 1.569-1.181 2.824-3.078 2.824h-.034C1.38 5.647.2 4.392.2 2.823.2 1.22 1.417 0 3.277 0c1.86 0 3.007 1.22 3.042 2.823zm-.358 5.055V24.22H.52V7.878h5.44zM25.575 24.22v-9.37c0-5.02-2.683-7.356-6.262-7.356-2.887 0-4.18 1.586-4.902 2.699V7.878H8.97c.072 1.534 0 16.342 0 16.342h5.44v-9.127c0-.488.035-.975.179-1.325.393-.976 1.288-1.986 2.79-1.986 1.97 0 2.757 1.499 2.757 3.695v8.743h5.438z" fill="#fff"/></svg>