<svg width="26" height="15" fill="none" xmlns="http://www.w3.org/2000/svg"><path d="M14.256 14.876s.462-.05.698-.3c.217-.228.21-.66.21-.66s-.03-2.014.923-2.312c.94-.292 2.145 1.948 3.425 2.81.967.651 1.7.509 1.7.509l3.42-.047s1.788-.108.94-1.488c-.07-.113-.494-1.022-2.542-2.887-2.145-1.953-1.857-1.637.725-5.016 1.573-2.058 2.201-3.314 2.005-3.85-.187-.514-1.344-.378-1.344-.378l-3.849.023s-.285-.038-.497.086c-.206.122-.34.406-.34.406s-.609 1.592-1.421 2.946c-1.714 2.856-2.4 3.007-2.68 2.83-.652-.414-.49-1.661-.49-2.547 0-2.77.429-3.924-.832-4.222-.418-.1-.726-.165-1.797-.176-1.373-.013-2.535.005-3.194.32-.438.211-.776.68-.57.708.255.033.83.152 1.136.56.395.527.38 1.71.38 1.71s.227 3.26-.529 3.663c-.518.278-1.23-.288-2.758-2.88C6.192 3.356 5.6 1.889 5.6 1.889s-.114-.274-.318-.422c-.247-.178-.59-.233-.59-.233l-3.658.023s-.55.015-.751.25c-.18.207-.014.639-.014.639s2.863 6.576 6.106 9.891c2.974 3.038 6.35 2.84 6.35 2.84h1.53z" fill="#fff"/></svg>