<svg width="251" height="497" fill="none" xmlns="http://www.w3.org/2000/svg"><g filter="url(#filter0_d)"><g filter="url(#filter1_bii)"><path d="M202.644 11.08H182.38a15.155 15.155 0 01-1.444 14.13 15.072 15.072 0 01-5.414 4.905 15.003 15.003 0 01-7.076 1.774H79.502c-2.468 0-4.897-.61-7.075-1.775a15.067 15.067 0 01-5.414-4.905 15.158 15.158 0 01-1.444-14.13H46.641c-8.4 0-16.456 3.35-22.396 9.312a31.855 31.855 0 00-9.278 22.482v402.949a31.855 31.855 0 009.278 22.482 31.615 31.615 0 0022.396 9.312h156.003c8.401 0 16.457-3.35 22.397-9.312a31.855 31.855 0 009.277-22.482V42.872a31.853 31.853 0 00-9.277-22.481 31.613 31.613 0 00-22.397-9.312z" fill="url(#paint0_linear)"/></g><path d="M89.746 399.603c-4.93 0-9.749-1.465-13.848-4.209a24.965 24.965 0 01-9.18-11.208 25.024 25.024 0 01-1.42-14.431 24.992 24.992 0 016.823-12.787 24.905 24.905 0 0112.762-6.835 24.88 24.88 0 0114.402 1.421 24.934 24.934 0 0111.187 9.198 25.02 25.02 0 014.2 13.876 25.027 25.027 0 01-7.309 17.652 24.927 24.927 0 01-17.617 7.323zm0-48.84a23.78 23.78 0 00-13.233 4.022 23.85 23.85 0 00-8.772 10.71 23.91 23.91 0 00-1.356 13.789 23.879 23.879 0 006.519 12.219 23.777 23.777 0 0025.957 5.173 23.828 23.828 0 0010.689-8.789 23.895 23.895 0 004.015-13.259 23.917 23.917 0 00-6.985-16.867 23.82 23.82 0 00-16.834-6.998z" fill="#0084BF"/><path d="M81.415 365.233a2.912 2.912 0 002.909-2.914 2.912 2.912 0 00-2.91-2.915 2.912 2.912 0 00-2.908 2.915 2.912 2.912 0 002.909 2.914zm5.655 2.209v16.169h5.01v-7.996c0-2.11.397-4.153 3.008-4.153 2.575 0 2.607 2.412 2.607 4.286v7.864h5.013v-8.867c0-4.356-.936-7.703-6.017-7.703-2.44 0-4.075 1.341-4.743 2.611h-.068v-2.211h-4.81zm-8.165 0h5.018v16.169h-5.018v-16.169z" fill="#0084BF"/><path d="M64.82 283.718a29.871 29.871 0 01-16.618-5.051 29.959 29.959 0 01-11.017-13.45 30.025 30.025 0 01-1.702-17.316 29.985 29.985 0 018.187-15.345 29.885 29.885 0 0115.315-8.202 29.855 29.855 0 0117.282 1.705 29.925 29.925 0 0113.424 11.038 30.014 30.014 0 015.04 16.651 30.033 30.033 0 01-8.77 21.182 29.914 29.914 0 01-21.141 8.788zm0-58.608a28.54 28.54 0 00-15.88 4.826 28.628 28.628 0 00-10.526 12.853 28.689 28.689 0 00-1.627 16.546 28.655 28.655 0 007.822 14.663 28.566 28.566 0 0014.635 7.838 28.526 28.526 0 0016.514-1.63 28.593 28.593 0 0012.827-10.547 28.681 28.681 0 004.817-15.911 28.7 28.7 0 00-8.38-20.241 28.583 28.583 0 00-20.202-8.397z" fill="#5281B9"/><path d="M79.146 246.038c.21-.697 0-1.208-.99-1.208h-3.28c-.834 0-1.216.442-1.425.928 0 0-1.668 4.074-4.03 6.716-.764.769-1.112 1.012-1.528 1.012-.208 0-.51-.243-.51-.94v-6.508c0-.836-.24-1.208-.936-1.208h-5.154c-.52 0-.834.387-.834.756 0 .791 1.181.974 1.302 3.203v4.838c0 1.059-.19 1.252-.608 1.252-1.111 0-3.816-4.089-5.42-8.77-.313-.91-.628-1.277-1.466-1.277H50.99c-.938 0-1.125.442-1.125.927 0 .873 1.111 5.188 5.176 10.896 2.71 3.898 6.526 6.011 10.001 6.011 2.084 0 2.34-.469 2.34-1.279v-2.946c0-.938.2-1.127.86-1.127.484 0 1.318.246 3.264 2.124 2.223 2.227 2.59 3.226 3.84 3.226h3.278c.936 0 1.404-.469 1.135-1.395-.295-.922-1.357-2.263-2.766-3.85-.765-.905-1.91-1.879-2.258-2.366-.486-.628-.346-.905 0-1.462.002.001 3.996-5.636 4.412-7.553z" fill="#5281B9"/><path d="M74.79 169.831a34.848 34.848 0 01-19.387-5.892 34.95 34.95 0 01-12.853-15.692 35.029 35.029 0 01-1.986-20.202 34.986 34.986 0 019.55-17.903 34.874 34.874 0 0117.869-9.569 34.833 34.833 0 0120.162 1.989 34.915 34.915 0 0115.661 12.878 35.012 35.012 0 015.881 19.426 35.038 35.038 0 01-10.232 24.713 34.899 34.899 0 01-24.665 10.252zm0-68.376a33.294 33.294 0 00-18.525 5.631 33.394 33.394 0 00-12.282 14.994 33.471 33.471 0 00-1.897 19.304 33.429 33.429 0 009.126 17.107 33.322 33.322 0 0017.073 9.144 33.285 33.285 0 0019.266-1.901 33.363 33.363 0 0014.966-12.306 33.456 33.456 0 005.619-18.562 33.48 33.48 0 00-9.777-23.614 33.349 33.349 0 00-23.569-9.797z" fill="#52CBFF"/><path d="M90.434 125.875a12.814 12.814 0 01-3.679 1.034 6.438 6.438 0 002.812-3.567 12.897 12.897 0 01-4.068 1.574c-1.182-1.289-2.842-2.038-4.726-2.038-3.515 0-6.386 2.877-6.386 6.429 0 .509.06 1.004.164 1.468a18.227 18.227 0 01-13.22-6.713 6.37 6.37 0 00-.868 3.222c0 2.232 1.122 4.21 2.856 5.334-1.061 0-2.048-.299-2.916-.749v.045c0 3.117 2.214 5.724 5.145 6.309a6.295 6.295 0 01-2.887.105c.808 2.532 3.156 4.42 5.983 4.465-2.184 1.738-4.95 2.757-7.972 2.757-.508 0-1.017-.03-1.525-.089a18.138 18.138 0 009.84 2.892c11.786 0 18.262-9.801 18.262-18.297 0-.285 0-.555-.015-.839a12.828 12.828 0 003.2-3.342z" fill="#52CBFF"/><path d="M168.494 99.356c-3.755 0-6.877-3.125-6.877-6.823 0-3.825 3.122-6.951 6.879-6.951 3.884 0 6.877 3.125 6.877 6.951a6.86 6.86 0 01-2.018 4.834 6.831 6.831 0 01-4.838 1.99l-.023-.001zm0-9.756c-1.589 0-2.799 1.339-2.799 2.935 0 1.593 1.21 2.805 2.801 2.805 1.655 0 2.801-1.212 2.801-2.805.001-1.597-1.146-2.935-2.803-2.935zm2.739 15.433l3.886 3.763c.764.827.764 2.039 0 2.805-.827.827-2.102.827-2.739 0l-3.884-3.827-3.757 3.827c-.382.382-.892.573-1.466.573-.446 0-.955-.192-1.402-.573-.764-.766-.764-1.978 0-2.806l3.949-3.763a17.924 17.924 0 01-4.072-1.784c-.956-.51-1.146-1.785-.637-2.742.637-.957 1.783-1.211 2.802-.573a8.79 8.79 0 009.169 0c1.02-.638 2.228-.384 2.801.573.575.957.318 2.231-.574 2.742-1.208.766-2.61 1.34-4.075 1.786l-.001-.001z" fill="#F7931E"/><path d="M168.513 124.876c-4.93 0-9.749-1.465-13.848-4.209a24.966 24.966 0 01-9.181-11.209 25.022 25.022 0 01-1.418-14.43 24.992 24.992 0 016.822-12.787 24.91 24.91 0 0112.762-6.835 24.882 24.882 0 0114.402 1.42 24.934 24.934 0 0111.186 9.2 25.01 25.01 0 014.201 13.875 25.03 25.03 0 01-7.309 17.652 24.93 24.93 0 01-17.617 7.323zm0-48.84c-4.711 0-9.316 1.4-13.233 4.022a23.849 23.849 0 00-8.772 10.71 23.908 23.908 0 00-1.356 13.789 23.883 23.883 0 006.519 12.219 23.794 23.794 0 0012.195 6.531c4.621.921 9.41.449 13.762-1.358a23.828 23.828 0 0010.689-8.789 23.902 23.902 0 004.014-13.26 23.912 23.912 0 00-6.984-16.867 23.82 23.82 0 00-16.834-6.997z" fill="#F7931E"/><path d="M184.466 216.785a29.872 29.872 0 01-16.618-5.051 29.959 29.959 0 01-11.017-13.45 30.026 30.026 0 01-1.702-17.316 29.992 29.992 0 018.186-15.346 29.9 29.9 0 0115.315-8.202 29.854 29.854 0 0117.282 1.706 29.913 29.913 0 0113.424 11.038 30.008 30.008 0 015.041 16.65 30.035 30.035 0 01-8.771 21.183 29.916 29.916 0 01-21.14 8.788zm0-58.609a28.545 28.545 0 00-15.88 4.827 28.627 28.627 0 00-10.527 12.852 28.69 28.69 0 00-1.626 16.546 28.657 28.657 0 007.822 14.664 28.563 28.563 0 0014.635 7.837 28.535 28.535 0 0016.514-1.629 28.6 28.6 0 0012.827-10.548 28.676 28.676 0 004.817-15.911 28.7 28.7 0 00-8.381-20.24 28.587 28.587 0 00-20.201-8.398z" fill="#4267B2"/><path d="M186.323 198.799v-10.918h3.676l.546-4.274h-4.222v-2.723c0-1.233.343-2.078 2.11-2.078h2.239v-3.81a29.716 29.716 0 00-3.28-.17c-3.249 0-5.48 1.988-5.48 5.636v3.137h-3.652v4.274h3.66v10.926h4.403z" fill="#4267B2"/><path d="M161.035 325.677a32.365 32.365 0 01-18.003-5.472 32.46 32.46 0 01-11.934-14.571 32.518 32.518 0 017.024-35.383 32.387 32.387 0 0116.591-8.886 32.34 32.34 0 0118.723 1.848 32.406 32.406 0 0114.542 11.958 32.508 32.508 0 015.461 18.038 32.536 32.536 0 01-9.501 22.947 32.411 32.411 0 01-22.903 9.521zm0-63.493a30.92 30.92 0 00-17.202 5.229 31.014 31.014 0 00-11.405 13.923 31.092 31.092 0 00-1.762 17.925 31.048 31.048 0 008.474 15.886 30.954 30.954 0 0015.854 8.49 30.912 30.912 0 0017.891-1.765 30.984 30.984 0 0013.896-11.427 31.07 31.07 0 005.218-17.236 31.088 31.088 0 00-9.079-21.928 30.97 30.97 0 00-21.885-9.097z" fill="#36ADE1"/><path d="M156.588 302.566l.373-5.634 10.209-9.218c.452-.413-.093-.612-.691-.253l-12.603 7.979-5.45-1.732c-1.17-.333-1.183-1.145.266-1.731l21.23-8.206c.971-.439 1.901.24 1.529 1.732l-3.616 17.063c-.253 1.212-.984 1.505-1.994.946l-5.504-4.076-2.645 2.571c-.306.306-.559.559-1.104.559z" fill="#36ADE1"/><path d="M243.822 116.204v.5h2.678l-.001 51.392h-2.677v278.303a42.176 42.176 0 01-12.289 29.77 41.88 41.88 0 01-29.666 12.331H46.456a41.88 41.88 0 01-29.667-12.331A42.174 42.174 0 014.5 446.399V42.601a42.228 42.228 0 013.194-16.112 42.11 42.11 0 019.095-13.659A41.947 41.947 0 0130.4 3.706 41.83 41.83 0 0146.457.5h155.411a41.88 41.88 0 0129.666 12.33 42.172 42.172 0 0112.289 29.771v73.603z" stroke="url(#paint1_linear)"/></g><defs><linearGradient id="paint0_linear" x1="14.967" y1="1.998" x2="227.7" y2="483.848" gradientUnits="userSpaceOnUse"><stop stop-color="#fff" stop-opacity=".3"/><stop offset="1" stop-color="#fff" stop-opacity="0"/></linearGradient><linearGradient id="paint1_linear" x1="230.829" y1="9.99" x2="17.265" y2="479.208" gradientUnits="userSpaceOnUse"><stop stop-color="#fff"/><stop offset="1" stop-color="#432980"/></linearGradient><filter id="filter0_d" x="0" y="0" width="251" height="497" filterUnits="userSpaceOnUse" color-interpolation-filters="sRGB"><feFlood flood-opacity="0" result="BackgroundImageFix"/><feColorMatrix in="SourceAlpha" values="0 0 0 0 0 0 0 0 0 0 0 0 0 0 0 0 0 0 127 0"/><feOffset dy="4"/><feGaussianBlur stdDeviation="2"/><feColorMatrix values="0 0 0 0 0 0 0 0 0 0 0 0 0 0 0 0 0 0 0.25 0"/><feBlend in2="BackgroundImageFix" result="effect1_dropShadow"/><feBlend in="SourceGraphic" in2="effect1_dropShadow" result="shape"/></filter><filter id="filter1_bii" x="-25.032" y="-28.921" width="299.351" height="546.537" filterUnits="userSpaceOnUse" color-interpolation-filters="sRGB"><feFlood flood-opacity="0" result="BackgroundImageFix"/><feGaussianBlur in="BackgroundImage" stdDeviation="20"/><feComposite in2="SourceAlpha" operator="in" result="effect1_backgroundBlur"/><feBlend in="SourceGraphic" in2="effect1_backgroundBlur" result="shape"/><feColorMatrix in="SourceAlpha" values="0 0 0 0 0 0 0 0 0 0 0 0 0 0 0 0 0 0 127 0" result="hardAlpha"/><feOffset dx="5" dy="5"/><feGaussianBlur stdDeviation="5"/><feComposite in2="hardAlpha" operator="arithmetic" k2="-1" k3="1"/><feColorMatrix values="0 0 0 0 1 0 0 0 0 1 0 0 0 0 1 0 0 0 0.1 0"/><feBlend in2="shape" result="effect2_innerShadow"/><feColorMatrix in="SourceAlpha" values="0 0 0 0 0 0 0 0 0 0 0 0 0 0 0 0 0 0 127 0" result="hardAlpha"/><feOffset dx="-5" dy="-5"/><feGaussianBlur stdDeviation="5"/><feComposite in2="hardAlpha" operator="arithmetic" k2="-1" k3="1"/><feColorMatrix values="0 0 0 0 1 0 0 0 0 1 0 0 0 0 1 0 0 0 0.1 0"/><feBlend in2="effect2_innerShadow" result="effect3_innerShadow"/></filter></defs></svg>