<svg width="782" height="504" fill="none" xmlns="http://www.w3.org/2000/svg"><g clip-path="url(#clip0)"><path d="M761.721 503.5h-742.6a18.637 18.637 0 01-13.16-5.463A18.653 18.653 0 01.5 484.871V26.76a13.533 13.533 0 013.96-9.552 13.52 13.52 0 019.548-3.963H766.59a13.76 13.76 0 019.718 4.034 13.775 13.775 0 014.032 9.723v457.869a18.65 18.65 0 01-18.62 18.629z" fill="url(#paint0_linear)" stroke="#fff"/><g opacity=".2" filter="url(#filter0_f)"><circle cx="665" cy="394" r="170" fill="#BD158F"/></g><g opacity=".2" filter="url(#filter1_f)"><circle cx="141.5" cy="164.5" r="218.5" fill="#FD762F"/></g><g filter="url(#filter2_bii)"><path d="M737.803 479.339H45.883c-10.142 0-18.394-7.728-18.394-17.226V63.426c0-7.045 6.115-12.776 13.631-12.776h701.221c7.64 0 13.856 5.826 13.856 12.986v398.477c0 9.498-8.251 17.226-18.394 17.226z" fill="url(#paint1_linear)"/><path d="M737.803 478.839H45.883c-9.897 0-17.894-7.534-17.894-16.726V63.426c0-6.739 5.86-12.276 13.131-12.276h701.221c7.395 0 13.356 5.632 13.356 12.486v398.477c0 9.192-7.996 16.726-17.894 16.726z" stroke="url(#paint2_linear)" stroke-opacity=".5"/></g><path d="M780.341 28.465H.5v-9.251a18.76 18.76 0 015.483-13.23A18.688 18.688 0 0119.19.5h742.462a18.686 18.686 0 0113.206 5.485 18.758 18.758 0 015.483 13.229v9.252z" fill="#161413" stroke="#fff"/><path d="M34.866 19.446a4.963 4.963 0 100-9.926 4.963 4.963 0 000 9.926zm18.836 0a4.963 4.963 0 100-9.926 4.963 4.963 0 000 9.926zm18.836 0a4.963 4.963 0 100-9.926 4.963 4.963 0 000 9.926z" fill="#fff"/><g opacity=".3" filter="url(#filter3_b)"><path fill-rule="evenodd" clip-rule="evenodd" d="M309.089 131.807v83.233a18.537 18.537 0 0018.536 18.538h22.379a38.682 38.682 0 016.771-9.16 38.11 38.11 0 0127.028-11.192h9.917a38.217 38.217 0 0133.801 20.352h22.383a18.537 18.537 0 0018.537-18.538v-83.233a18.538 18.538 0 00-18.537-18.538H327.625a18.537 18.537 0 00-18.536 18.538zm79.676 65.159c14.076 0 25.487-11.413 25.487-25.49 0-14.078-11.411-25.49-25.487-25.49-14.077 0-25.488 11.412-25.488 25.49 0 14.077 11.411 25.49 25.488 25.49z" fill="#6C63FF"/></g><g opacity=".3" filter="url(#filter4_b)"><path fill-rule="evenodd" clip-rule="evenodd" d="M82.255 131.807v83.233a18.54 18.54 0 0018.536 18.538h22.379a38.682 38.682 0 016.771-9.16 38.11 38.11 0 0127.028-11.192h9.917a38.217 38.217 0 0133.801 20.352h22.383a18.537 18.537 0 0018.537-18.538v-83.233a18.538 18.538 0 00-18.537-18.538H100.791a18.537 18.537 0 00-18.536 18.538zm79.676 65.159c14.076 0 25.487-11.413 25.487-25.49 0-14.078-11.411-25.49-25.487-25.49-14.077 0-25.488 11.412-25.488 25.49 0 14.077 11.411 25.49 25.488 25.49z" fill="#6C63FF"/></g><g opacity=".3" filter="url(#filter5_b)"><path fill-rule="evenodd" clip-rule="evenodd" d="M536.158 131.807v83.233a18.538 18.538 0 0018.537 18.538h22.378a38.686 38.686 0 016.772-9.16 38.115 38.115 0 0127.028-11.192h9.917a38.22 38.22 0 0133.801 20.352h22.383a18.537 18.537 0 0018.536-18.538v-83.233a18.537 18.537 0 00-18.536-18.538H554.695a18.537 18.537 0 00-18.537 18.538zm79.676 65.159c14.077 0 25.488-11.413 25.488-25.49 0-14.078-11.411-25.49-25.488-25.49-14.076 0-25.487 11.412-25.487 25.49 0 14.077 11.411 25.49 25.487 25.49z" fill="#fff"/></g><g opacity=".3" filter="url(#filter6_b)"><path fill-rule="evenodd" clip-rule="evenodd" d="M82.019 316.027v83.234a18.537 18.537 0 0018.536 18.538h22.379a38.682 38.682 0 016.771-9.16 38.093 38.093 0 0127.029-11.192h9.917a38.215 38.215 0 0133.8 20.352h22.384a18.535 18.535 0 0018.536-18.538v-83.234a18.538 18.538 0 00-18.536-18.537h-122.28a18.537 18.537 0 00-18.536 18.537zm79.676 65.159c14.076 0 25.487-11.412 25.487-25.489 0-14.078-11.411-25.49-25.487-25.49-14.076 0-25.487 11.412-25.487 25.49 0 14.077 11.411 25.489 25.487 25.489z" fill="#fff"/></g><g opacity=".3" filter="url(#filter7_b)"><path fill-rule="evenodd" clip-rule="evenodd" d="M309.089 316.027v83.234a18.537 18.537 0 0018.536 18.538h22.379a38.682 38.682 0 016.771-9.16 38.093 38.093 0 0127.028-11.192h9.917a38.216 38.216 0 0133.801 20.352h22.383c4.916 0 9.631-1.953 13.107-5.43a18.534 18.534 0 005.43-13.108v-83.234a18.537 18.537 0 00-18.537-18.537H327.625a18.537 18.537 0 00-18.536 18.537zm79.676 65.159c14.076 0 25.487-11.412 25.487-25.489 0-14.078-11.411-25.49-25.487-25.49-14.077 0-25.488 11.412-25.488 25.49 0 14.077 11.411 25.489 25.488 25.489z" fill="#fff"/></g><g opacity=".3" filter="url(#filter8_b)"><path fill-rule="evenodd" clip-rule="evenodd" d="M536.158 316.027v83.234c0 4.917 1.953 9.632 5.43 13.108a18.533 18.533 0 0013.107 5.43h22.378a38.686 38.686 0 016.772-9.16 38.1 38.1 0 0127.028-11.192h9.917a38.21 38.21 0 0133.801 20.352h22.383a18.533 18.533 0 0018.536-18.538v-83.234a18.537 18.537 0 00-18.536-18.537H554.695a18.537 18.537 0 00-18.537 18.537zm79.676 65.159c14.077 0 25.488-11.412 25.488-25.489 0-14.078-11.411-25.49-25.488-25.49-14.076 0-25.487 11.412-25.487 25.49 0 14.077 11.411 25.489 25.487 25.489z" fill="#6C63FF"/></g></g><defs><filter id="filter0_f" x="295" y="24" width="740" height="740" filterUnits="userSpaceOnUse" color-interpolation-filters="sRGB"><feFlood flood-opacity="0" result="BackgroundImageFix"/><feBlend in="SourceGraphic" in2="BackgroundImageFix" result="shape"/><feGaussianBlur stdDeviation="100" result="effect1_foregroundBlur"/></filter><filter id="filter1_f" x="-277" y="-254" width="837" height="837" filterUnits="userSpaceOnUse" color-interpolation-filters="sRGB"><feFlood flood-opacity="0" result="BackgroundImageFix"/><feBlend in="SourceGraphic" in2="BackgroundImageFix" result="shape"/><feGaussianBlur stdDeviation="100" result="effect1_foregroundBlur"/></filter><filter id="filter2_bii" x="-12.511" y="10.65" width="808.708" height="508.69" filterUnits="userSpaceOnUse" color-interpolation-filters="sRGB"><feFlood flood-opacity="0" result="BackgroundImageFix"/><feGaussianBlur in="BackgroundImage" stdDeviation="20"/><feComposite in2="SourceAlpha" operator="in" result="effect1_backgroundBlur"/><feBlend in="SourceGraphic" in2="effect1_backgroundBlur" result="shape"/><feColorMatrix in="SourceAlpha" values="0 0 0 0 0 0 0 0 0 0 0 0 0 0 0 0 0 0 127 0" result="hardAlpha"/><feOffset dx="5" dy="5"/><feGaussianBlur stdDeviation="5"/><feComposite in2="hardAlpha" operator="arithmetic" k2="-1" k3="1"/><feColorMatrix values="0 0 0 0 1 0 0 0 0 1 0 0 0 0 1 0 0 0 0.1 0"/><feBlend in2="shape" result="effect2_innerShadow"/><feColorMatrix in="SourceAlpha" values="0 0 0 0 0 0 0 0 0 0 0 0 0 0 0 0 0 0 127 0" result="hardAlpha"/><feOffset dx="-5" dy="-5"/><feGaussianBlur stdDeviation="5"/><feComposite in2="hardAlpha" operator="arithmetic" k2="-1" k3="1"/><feColorMatrix values="0 0 0 0 1 0 0 0 0 1 0 0 0 0 1 0 0 0 0.1 0"/><feBlend in2="effect2_innerShadow" result="effect3_innerShadow"/></filter><filter id="filter3_b" x="248.089" y="52.269" width="281.352" height="242.309" filterUnits="userSpaceOnUse" color-interpolation-filters="sRGB"><feFlood flood-opacity="0" result="BackgroundImageFix"/><feGaussianBlur in="BackgroundImage" stdDeviation="30.5"/><feComposite in2="SourceAlpha" operator="in" result="effect1_backgroundBlur"/><feBlend in="SourceGraphic" in2="effect1_backgroundBlur" result="shape"/></filter><filter id="filter4_b" x="21.255" y="52.269" width="281.352" height="242.309" filterUnits="userSpaceOnUse" color-interpolation-filters="sRGB"><feFlood flood-opacity="0" result="BackgroundImageFix"/><feGaussianBlur in="BackgroundImage" stdDeviation="30.5"/><feComposite in2="SourceAlpha" operator="in" result="effect1_backgroundBlur"/><feBlend in="SourceGraphic" in2="effect1_backgroundBlur" result="shape"/></filter><filter id="filter5_b" x="532.158" y="109.269" width="167.352" height="128.309" filterUnits="userSpaceOnUse" color-interpolation-filters="sRGB"><feFlood flood-opacity="0" result="BackgroundImageFix"/><feGaussianBlur in="BackgroundImage" stdDeviation="2"/><feComposite in2="SourceAlpha" operator="in" result="effect1_backgroundBlur"/><feBlend in="SourceGraphic" in2="effect1_backgroundBlur" result="shape"/></filter><filter id="filter6_b" x="21.019" y="236.49" width="281.352" height="242.309" filterUnits="userSpaceOnUse" color-interpolation-filters="sRGB"><feFlood flood-opacity="0" result="BackgroundImageFix"/><feGaussianBlur in="BackgroundImage" stdDeviation="30.5"/><feComposite in2="SourceAlpha" operator="in" result="effect1_backgroundBlur"/><feBlend in="SourceGraphic" in2="effect1_backgroundBlur" result="shape"/></filter><filter id="filter7_b" x="248.089" y="236.49" width="281.352" height="242.309" filterUnits="userSpaceOnUse" color-interpolation-filters="sRGB"><feFlood flood-opacity="0" result="BackgroundImageFix"/><feGaussianBlur in="BackgroundImage" stdDeviation="30.5"/><feComposite in2="SourceAlpha" operator="in" result="effect1_backgroundBlur"/><feBlend in="SourceGraphic" in2="effect1_backgroundBlur" result="shape"/></filter><filter id="filter8_b" x="475.158" y="236.49" width="281.352" height="242.309" filterUnits="userSpaceOnUse" color-interpolation-filters="sRGB"><feFlood flood-opacity="0" result="BackgroundImageFix"/><feGaussianBlur in="BackgroundImage" stdDeviation="30.5"/><feComposite in2="SourceAlpha" operator="in" result="effect1_backgroundBlur"/><feBlend in="SourceGraphic" in2="effect1_backgroundBlur" result="shape"/></filter><linearGradient id="paint0_linear" x1="0" y1="169.639" x2="769.625" y2="166.343" gradientUnits="userSpaceOnUse"><stop/><stop offset="1"/></linearGradient><linearGradient id="paint1_linear" x1="27.805" y1="50.979" x2="762.534" y2="488.943" gradientUnits="userSpaceOnUse"><stop stop-color="#fff" stop-opacity=".3"/><stop offset="1" stop-color="#fff" stop-opacity="0"/></linearGradient><linearGradient id="paint2_linear" x1="34.5" y1="64" x2="756" y2="479" gradientUnits="userSpaceOnUse"><stop stop-color="#FD772E"/><stop offset="1" stop-color="#432980"/></linearGradient><clipPath id="clip0"><path fill="#fff" d="M0 0h782v504H0z"/></clipPath></defs></svg>